PathFileType	4	(X/Y/Z)	C:/Users/opensim2020/Desktop/walking_exp_matlab/subject06_walking12_static.trc																																																																																																																																														
DataRate	CameraRate	NumFrames	NumMarkers	Units	OrigDataRate	OrigDataStartFrame	OrigNumFrames																																																																																																																																										
100	100	5	48	mm	100	318	363																																																																																																																																										
Frame#	Time	LFHD			RFHD			LBHD			RBHD			C7			T10			CLAV			STRN			RBAK			LSHO			LUPA			LELB			LFRM			LWRA			LWRB			LFIN			RSHO			RUPA			RELB			RFRM			RWRA			RWRB			RFIN			LASI			RASI			LPSI			RPSI			LTHI			LKNE			LTIB			LANK			LHEE			LTOE			RTHI			RKNE			RTIB			RANK			RHEE			RTOE			*39			*40			*41			*42			*43			*44			*45			*46			*47		
		X1	Y1	Z1	X2	Y2	Z2	X3	Y3	Z3	X4	Y4	Z4	X5	Y5	Z5	X6	Y6	Z6	X7	Y7	Z7	X8	Y8	Z8	X9	Y9	Z9	X10	Y10	Z10	X11	Y11	Z11	X12	Y12	Z12	X13	Y13	Z13	X14	Y14	Z14	X15	Y15	Z15	X16	Y16	Z16	X17	Y17	Z17	X18	Y18	Z18	X19	Y19	Z19	X20	Y20	Z20	X21	Y21	Z21	X22	Y22	Z22	X23	Y23	Z23	X24	Y24	Z24	X25	Y25	Z25	X26	Y26	Z26	X27	Y27	Z27	X28	Y28	Z28	X29	Y29	Z29	X30	Y30	Z30	X31	Y31	Z31	X32	Y32	Z32	X33	Y33	Z33	X34	Y34	Z34	X35	Y35	Z35	X36	Y36	Z36	X37	Y37	Z37	X38	Y38	Z38	X39	Y39	Z39	X40	Y40	Z40	X41	Y41	Z41	X42	Y42	Z42	X43	Y43	Z43	X44	Y44	Z44	X45	Y45	Z45	X46	Y46	Z46	X47	Y47	Z47	X48	Y48	Z48
																																																																																																																																																	
318	3.17	388.68307	1678.0813	646.17108	404.82181	1662.77478	515.75256	520.47162	1620.9137	664.26776	534.41473	1611.83984	535.48413	524.93701	1460.57349	607.31189	554.69208	1133.46228	597.42627	413.50391	1387.09753	599.13287	367.95566	1214.01245	604.33923	599.29321	1289.66138	527.38806	459.54443	1418.76758	763.90601	440.95435	1219.12793	841.75873	428.86499	1108.43433	859.87885	373.37515	970.33539	890.5191	287.97604	870.88397	855.00269	345.41562	854.26227	893.44495	285.05026	786.11658	898.51764	469.84064	1417.6886	442.84613	475.42075	1222.56152	345.72656	439.06052	1109.65063	316.82755	410.22171	997.21503	280.78763	332.47885	862.50439	281.53952	391.05075	863.35779	248.90263	346.34546	794.51733	229.15233	377.83594	973.59875	698.76202	381.31345	980.09332	478.66458	533.81213	1005.32764	674.10461	530.20587	1011.08862	507.85312	480.95877	666.72607	777.87134	500.42688	503.55838	768.32373	544.92926	252.89998	793.78351	543.42743	75.17892	771.35406	582.93695	56.36758	729.18445	395.21463	39.10688	770.42932	477.12195	650.25836	411.15564	492.522	525.2196	427.75238	561.66095	269.49933	406.40054	575.01453	78.62747	436.16708	612.93036	51.23916	479.36581	418.50809	35.84019	431.8129	496.37476	1712.98596	598.62939	NaN	NaN	NaN	NaN	NaN	NaN	NaN	NaN	NaN	NaN	NaN	NaN	NaN	NaN	NaN	NaN	NaN	NaN	NaN	NaN	NaN	NaN	NaN	NaN
319	3.18	388.55765	1678.03931	646.00995	404.75278	1662.76819	515.60095	520.22913	1620.87244	664.07965	534.31927	1611.79578	535.46863	524.8725	1460.56934	607.25781	554.63068	1133.42444	597.32098	413.5365	1386.99475	599.01984	367.95132	1213.94775	604.16437	599.29449	1289.69702	527.35632	459.39713	1418.69983	763.76904	440.82211	1219.0531	841.64325	428.76846	1108.3501	859.79852	373.2825	970.27875	890.45349	287.91226	870.81061	854.8855	345.31845	854.19684	893.34723	284.94296	786.05463	898.39685	469.85364	1417.72058	442.69977	475.49799	1222.53699	345.58893	439.22519	1109.48218	317.0043	410.34912	997.11255	280.81601	332.54782	862.55389	281.36273	391.12454	863.34943	248.79472	346.31122	794.65674	229.0358	377.82037	973.6275	698.69269	381.29898	980.11133	478.56335	533.74915	1005.39429	674.03638	530.16754	1011.07233	507.74231	480.9118	666.73761	777.79663	500.38168	503.54852	768.26465	544.89514	252.8875	793.77106	543.43475	75.22064	771.35907	582.86072	56.36971	729.16681	395.23376	39.16564	770.43677	477.04752	650.27063	411.08124	492.40454	525.2832	427.43924	561.6015	269.4772	406.33682	575.01367	78.59084	436.1897	612.92877	51.23899	479.36014	418.50027	35.89147	431.88925	496.17752	1712.99438	598.47839	NaN	NaN	NaN	NaN	NaN	NaN	NaN	NaN	NaN	NaN	NaN	NaN	NaN	NaN	NaN	NaN	NaN	NaN	NaN	NaN	NaN	NaN	NaN	NaN
320	3.19	388.43936	1678.0437	645.86597	404.74347	1662.76599	515.4682	520.26703	1620.84717	664.20453	534.17084	1611.78906	535.49231	524.73804	1460.56763	607.08362	554.67584	1133.46509	597.28729	413.51932	1386.90979	598.89813	367.95792	1213.90039	604.04132	599.25427	1289.72131	527.28491	459.27554	1418.6355	763.65613	440.69595	1218.99817	841.54584	428.66556	1108.3042	859.66766	373.2056	970.23877	890.37634	287.80899	870.76605	854.76593	345.20578	854.13654	893.22418	284.84521	786.00385	898.27002	469.84543	1417.71252	442.56961	475.59521	1222.56677	345.44589	439.33777	1109.49463	316.83099	410.4169	997.10132	280.60342	332.62332	862.58264	281.18085	391.18903	863.36371	248.62682	346.36636	794.58734	228.89185	377.80499	973.63788	698.57202	381.27661	980.11066	478.48203	533.70209	1005.39319	673.92657	530.1532	1011.08099	507.67496	480.86331	666.74408	777.75	500.29037	503.55188	768.2049	544.83435	252.9445	793.78369	543.40497	75.22166	771.37659	582.83472	56.36409	729.18109	395.23599	39.1863	770.4035	476.98767	650.23431	411.06854	492.37802	525.28894	427.35934	561.57813	269.47134	406.32208	575.00073	78.58817	436.15799	612.93225	51.26952	479.38519	418.49435	35.87399	431.83344	496.17099	1712.93665	598.46643	NaN	NaN	NaN	NaN	NaN	NaN	NaN	NaN	NaN	NaN	NaN	NaN	NaN	NaN	NaN	NaN	NaN	NaN	NaN	NaN	NaN	NaN	NaN	NaN
321	3.2	388.33554	1678.03796	645.75055	404.71246	1662.74622	515.31891	520.12128	1620.81738	664.10187	534.10535	1611.78992	535.43469	524.62848	1460.56799	607.00879	554.55164	1133.45569	597.16846	413.49936	1386.83105	598.77399	367.96429	1213.84216	603.88623	599.2265	1289.70459	527.2265	459.14215	1418.57568	763.54498	440.58298	1218.94128	841.45105	428.57184	1108.23328	859.61475	373.11142	970.18555	890.26178	287.73022	870.68835	854.67804	345.11646	854.05725	893.11243	284.70602	785.92523	898.12555	469.84869	1417.71582	442.44342	475.66058	1222.59387	345.2977	439.4155	1109.51379	316.64938	410.47772	997.2132	280.31357	332.68396	862.63544	280.95505	391.22079	863.43616	248.42317	346.22586	794.68207	228.8642	377.76254	973.64508	698.42542	381.25452	980.10931	478.3974	533.67462	1005.41681	673.828	530.12024	1011.07391	507.58182	480.81818	666.76917	777.72607	500.22729	503.56174	768.15826	544.7464	252.91133	793.76831	543.37787	75.2233	771.33081	582.7735	56.36624	729.1925	395.2106	39.15475	770.45557	476.96823	650.22394	411.03326	492.32446	525.25647	427.3562	561.55847	269.47128	406.29797	574.99481	78.57613	436.17313	612.91656	51.25157	479.39093	418.49341	35.86941	431.88577	496.01682	1712.94495	598.30182	NaN	NaN	NaN	NaN	NaN	NaN	NaN	NaN	NaN	NaN	NaN	NaN	NaN	NaN	NaN	NaN	NaN	NaN	NaN	NaN	NaN	NaN	NaN	NaN
322	3.21	388.21863	1678.0155	645.62347	404.61697	1662.75928	515.22864	519.88428	1620.81787	663.87476	534.00647	1611.75549	535.34265	524.55939	1460.57422	606.93378	554.52307	1133.45471	597.09192	413.47791	1386.75928	598.62128	367.95914	1213.80554	603.71375	599.17047	1289.74817	527.08984	459.04404	1418.52417	763.41187	440.49081	1218.8916	841.3139	428.49228	1108.16785	859.46204	373.02856	970.12964	890.17255	287.65796	870.65881	854.54272	345.03577	854.00208	892.99823	284.65698	785.87421	898.01605	469.84033	1417.71643	442.32248	475.69931	1222.58813	345.15714	439.45309	1109.50439	316.5043	410.5538	997.2428	280.10611	332.75534	862.68286	280.70947	391.35098	863.42615	248.21024	346.42575	794.61707	228.49933	377.74799	973.6604	698.30658	381.32092	980.06134	478.31589	533.66669	1005.35223	673.65839	530.11176	1011.06824	507.47195	480.77225	666.74744	777.56995	500.16183	503.56537	768.1051	544.71613	252.93942	793.75079	543.21472	75.15372	771.22882	582.84497	56.3945	729.16864	395.33606	39.18435	770.50458	476.91147	650.1828	410.92697	492.28253	525.28564	427.23788	561.54022	269.44827	406.25778	574.987	78.57509	436.18469	612.93805	51.2492	479.37418	418.49112	35.90044	431.87262	496.00073	1712.90271	598.28198	NaN	NaN	NaN	NaN	NaN	NaN	NaN	NaN	NaN	NaN	NaN	NaN	NaN	NaN	NaN	NaN	NaN	NaN	NaN	NaN	NaN	NaN	NaN	NaN
